<?xml version="1.0" encoding="UTF-8" standalone="no"?>
<svg width="456" height="456" viewBox="0 0 456 456" version="1.1" xmlns="http://www.w3.org/2000/svg">
    <!-- Hoja del documento con la esquina superior derecha doblada -->
    <path d="M156 100h116l44 44v196a16 16 0 0 1-16 16H156a16 16 0 0 1-16-16V116a16 16 0 0 1 16-16z"
          fill="#FFFFFF" />
    <!-- Pliegue de la esquina -->
    <path d="M272 100l44 44h-44z" fill="#C9CCD3" />

    <!-- Lineas de texto -->
    <rect x="204" y="196" width="88" height="12" rx="6" fill="#C9CCD3" />
    <rect x="168" y="236" width="124" height="12" rx="6" fill="#C9CCD3" />
    <rect x="168" y="276" width="124" height="12" rx="6" fill="#C9CCD3" />
    <rect x="168" y="316" width="80" height="12" rx="6" fill="#C9CCD3" />

    <!-- Marcapaginas -->
    <path d="M172 100h48v112l-24-22-24 22z" fill="#B3121E" />
</svg>
